<mxfile host="65bd71144e">
    <diagram id="ur5ZIDHpET7aPaASjTbB" name="Page-1">
        <mxGraphModel dx="833" dy="777" grid="1" gridSize="10" guides="1" tooltips="1" connect="1" arrows="1" fold="1" page="1" pageScale="1" pageWidth="850" pageHeight="1100" math="0" shadow="0">
            <root>
                <mxCell id="0"/>
                <mxCell id="1" parent="0"/>
                <mxCell id="3" value="Object" style="html=1;" vertex="1" parent="1">
                    <mxGeometry x="370" y="370" width="110" height="50" as="geometry"/>
                </mxCell>
                <mxCell id="4" value="+ item: attribute" style="text;strokeColor=none;fillColor=none;align=left;verticalAlign=top;spacingLeft=4;spacingRight=4;overflow=hidden;rotatable=0;points=[[0,0.5],[1,0.5]];portConstraint=eastwest;" vertex="1" parent="1">
                    <mxGeometry x="370" y="390" width="100" height="26" as="geometry"/>
                </mxCell>
                <mxCell id="5" value="Génération de données" style="shape=folder;fontStyle=1;spacingTop=10;tabWidth=40;tabHeight=14;tabPosition=left;html=1;" vertex="1" parent="1">
                    <mxGeometry x="200" y="230" width="300" height="230" as="geometry"/>
                </mxCell>
                <mxCell id="6" value="Web&lt;br&gt;" style="shape=folder;fontStyle=1;spacingTop=10;tabWidth=40;tabHeight=14;tabPosition=left;html=1;" vertex="1" parent="1">
                    <mxGeometry x="50" y="860" width="160" height="150" as="geometry"/>
                </mxCell>
                <mxCell id="8" value="Créateur de dictionnaires&amp;nbsp;" style="shape=folder;fontStyle=1;spacingTop=10;tabWidth=40;tabHeight=14;tabPosition=left;html=1;" vertex="1" parent="1">
                    <mxGeometry x="180" y="610" width="270" height="130" as="geometry"/>
                </mxCell>
                <mxCell id="9" value="" style="endArrow=block;dashed=1;endFill=0;endSize=12;html=1;exitX=0.5;exitY=0.056;exitDx=0;exitDy=0;exitPerimeter=0;" edge="1" parent="1" source="6">
                    <mxGeometry width="160" relative="1" as="geometry">
                        <mxPoint x="240" y="790" as="sourcePoint"/>
                        <mxPoint x="240" y="740" as="targetPoint"/>
                        <Array as="points">
                            <mxPoint x="210" y="790"/>
                        </Array>
                    </mxGeometry>
                </mxCell>
                <mxCell id="10" value="«import»" style="text;align=center;fontStyle=1;verticalAlign=middle;spacingLeft=3;spacingRight=3;strokeColor=none;rotatable=0;points=[[0,0.5],[1,0.5]];portConstraint=eastwest;" vertex="1" parent="1">
                    <mxGeometry x="150" y="810" width="120" height="50" as="geometry"/>
                </mxCell>
                <mxCell id="12" value="Base SQL" style="shape=folder;fontStyle=1;spacingTop=10;tabWidth=40;tabHeight=14;tabPosition=left;html=1;" vertex="1" parent="1">
                    <mxGeometry x="265" y="860" width="170" height="150" as="geometry"/>
                </mxCell>
                <mxCell id="16" value="package" style="shape=folder;fontStyle=1;spacingTop=10;tabWidth=40;tabHeight=14;tabPosition=left;html=1;" vertex="1" parent="1">
                    <mxGeometry x="540" y="870" width="200" height="140" as="geometry"/>
                </mxCell>
            </root>
        </mxGraphModel>
    </diagram>
</mxfile>